<?xml version="1.0" ?>
<svg height="41.375049825012525mm" version="1.1" viewBox="113.61497508749373 -147.4700747375188 45.18504982501251 41.375049825012525" width="45.18504982501251mm" xmlns="http://www.w3.org/2000/svg" xmlns:xlink="http://www.w3.org/1999/xlink">
	<g transform="scale(1,-1)">
		<path d="M 113.61497508749373,-64.77000000245489 L 113.61521597122862,-64.76509670138799 L 113.61593630224267,-64.76024062397666 L 113.61712914348706,-64.75547853469149 L 113.61878300724851,-64.7508562950556 L 113.62088196591499,-64.74641841976323 L 113.62340580536711,-64.74220764797951 L 113.62633021965111,-64.73826453173884 L 113.62962704505907,-64.73462704540562 L 113.63326453135974,-64.73133021996222 L 113.63720764757217,-64.72840580563931 L 113.64141841933089,-64.72588196614608 L 113.64585629460258,-64.72378300743618 L 113.65047853422239,-64.72212914362937 L 113.6552406234957,-64.72093630233834 L 113.66009670089983,-64.72021597127672 L 113.66500000233223,-64.71997508749976 L 158.74999999742207,-64.71997508749374 L 158.754903298612,-64.72021597122863 L 158.7597593760233,-64.72093630224266 L 158.76452146530846,-64.72212914348705 L 158.76914370494436,-64.72378300724851 L 158.77358158023677,-64.725881965915 L 158.7777923520203,-64.728405805367 L 158.78173546826122,-64.73133021965117 L 158.78537295459438,-64.73462704505907 L 158.78866978003776,-64.73826453135972 L 158.7915941943606,-64.74220764757204 L 158.7941180338537,-64.74641841933055 L 158.79621699256376,-64.75085629460246 L 158.79787085637048,-64.755478534222 L 158.7990636976616,-64.76024062349543 L 158.7997840287233,-64.7650967008999 L 158.80002491250022,-64.77000000233211 L 158.80002491250625,-106.04499999742222 L 158.79978402877137,-106.04990329861221 L 158.7990636977574,-106.05475937602306 L 158.7978708565131,-106.05952146530784 L 158.79621699275154,-106.06414370494414 L 158.79411803408493,-106.06858158023687 L 158.79159419463303,-106.07279235202026 L 158.788669780349,-106.07673546826105 L 158.78537295494093,-106.08037295459438 L 158.7817354686403,-106.08366978003772 L 158.7777923524279,-106.08659419436064 L 158.7735815806692,-106.08911803385385 L 158.7691437053974,-106.09121699256382 L 158.76452146577788,-106.09287085637054 L 158.75975937650432,-106.09406369766165 L 158.75490329910014,-106.09478402872328 L 158.74999999766771,-106.09502491250024 L 113.66500000257793,-106.09502491250626 L 113.66009670138799,-106.09478402877137 L 113.65524062397665,-106.09406369775732 L 113.65047853469149,-106.09287085651293 L 113.6458562950556,-106.09121699275148 L 113.64141841976323,-106.089118034085 L 113.63720764797951,-106.08659419463288 L 113.63326453173883,-106.08366978034888 L 113.62962704540561,-106.08037295494093 L 113.62633021996221,-106.07673546864025 L 113.62340580563931,-106.07279235242783 L 113.62088196614607,-106.0685815806691 L 113.61878300743618,-106.06414370539741 L 113.61712914362937,-106.0595214657776 L 113.61593630233834,-106.0547593765043 L 113.61521597127671,-106.04990329910017 L 113.61497508749976,-106.04499999766776 L 113.61497508749373,-64.77000000245489 z M 158.69997497749375,-105.99497508749374 L 158.69997498239982,-105.99497508737333 L 158.69997498338,-105.99497508732519 L 158.69997499314763,-105.99497508636316 L 158.69997499411835,-105.99497508621916 L 158.69997500374183,-105.99497508430494 L 158.69997500469378,-105.9949750840665 L 158.6999750140862,-105.99497508121735 L 158.69997501501018,-105.99497508088673 L 158.69997502407574,-105.99497507713164 L 158.69997502496287,-105.99497507671207 L 158.69997503361768,-105.99497507208602 L 158.6999750344594,-105.99497507158151 L 158.69997504261997,-105.99497506612879 L 158.6999750434082,-105.9949750655442 L 158.6999750509936,-105.99497505931896 L 158.69997505172074,-105.99497505865992 L 158.69997505865925,-105.99497505172145 L 158.6999750593183,-105.99497505099433 L 158.6999750655454,-105.99497504340657 L 158.69997506612998,-105.99497504261834 L 158.6999750715815,-105.99497503445942 L 158.699975072086,-105.99497503361768 L 158.6999750767115,-105.99497502496406 L 158.69997507713109,-105.99497502407694 L 158.69997508088719,-105.9949750150089 L 158.6999750812178,-105.99497501408491 L 158.69997508406604,-105.99497500469548 L 158.6999750843045,-105.99497500374353 L 158.69997508621944,-105.99497499411653 L 158.69997508636342,-105.99497499314579 L 158.69997508732502,-105.99497498338296 L 158.6999750873732,-105.9949749824028 L 158.69997508749375,-105.99497497749375 L 158.69997508749375,-64.82002502250624 L 158.6999750873732,-64.8200250175972 L 158.69997508732502,-64.82002501661704 L 158.69997508636342,-64.82002500685421 L 158.69997508621944,-64.82002500588347 L 158.6999750843045,-64.82002499625646 L 158.69997508406604,-64.82002499530452 L 158.6999750812178,-64.82002498591508 L 158.69997508088719,-64.8200249849911 L 158.69997507713109,-64.82002497592306 L 158.6999750767115,-64.82002497503593 L 158.699975072086,-64.82002496638232 L 158.6999750715815,-64.82002496554058 L 158.69997506612998,-64.82002495738166 L 158.6999750655454,-64.82002495659343 L 158.6999750593183,-64.82002494900567 L 158.69997505865925,-64.82002494827854 L 158.69997505172074,-64.82002494134008 L 158.6999750509936,-64.82002494068104 L 158.6999750434082,-64.8200249344558 L 158.69997504261997,-64.82002493387121 L 158.6999750344594,-64.82002492841849 L 158.69997503361768,-64.82002492791398 L 158.69997502496287,-64.82002492328793 L 158.69997502407574,-64.82002492286836 L 158.69997501501018,-64.82002491911327 L 158.6999750140862,-64.82002491878265 L 158.69997500469378,-64.8200249159335 L 158.69997500374183,-64.82002491569506 L 158.69997499411835,-64.82002491378084 L 158.69997499314763,-64.82002491363684 L 158.69997498338,-64.82002491267481 L 158.69997498239982,-64.82002491262666 L 158.69997497749375,-64.82002491250626 L 113.71502502250624,-64.82002491250626 L 113.71502501760008,-64.82002491262668 L 113.71502501661992,-64.82002491267482 L 113.71502500685278,-64.82002491363679 L 113.71502500588204,-64.82002491378078 L 113.71502499625781,-64.82002491569514 L 113.71502499530587,-64.82002491593359 L 113.7150249859138,-64.82002491878265 L 113.71502498498981,-64.82002491911327 L 113.71502497592424,-64.82002492286836 L 113.71502497503711,-64.82002492328793 L 113.71502496638232,-64.82002492791398 L 113.71502496554058,-64.82002492841849 L 113.71502495738072,-64.8200249338707 L 113.71502495659249,-64.82002493445529 L 113.71502494900567,-64.82002494068169 L 113.71502494827854,-64.82002494134073 L 113.71502494134073,-64.82002494827854 L 113.71502494068169,-64.82002494900567 L 113.71502493445529,-64.82002495659249 L 113.7150249338707,-64.82002495738072 L 113.71502492841849,-64.82002496554058 L 113.71502492791397,-64.82002496638232 L 113.71502492328793,-64.82002497503711 L 113.71502492286835,-64.82002497592424 L 113.71502491911326,-64.82002498498981 L 113.71502491878265,-64.8200249859138 L 113.71502491593358,-64.82002499530587 L 113.71502491569514,-64.82002499625781 L 113.71502491378078,-64.82002500588204 L 113.71502491363678,-64.82002500685279 L 113.71502491267482,-64.82002501661992 L 113.71502491262667,-64.82002501760009 L 113.71502491250625,-64.82002502250624 L 113.71502491250625,-105.99497497749375 L 113.71502491262667,-105.99497498239991 L 113.71502491267482,-105.99497498338008 L 113.71502491363678,-105.99497499314721 L 113.71502491378078,-105.99497499411795 L 113.71502491569514,-105.99497500374218 L 113.71502491593358,-105.99497500469413 L 113.71502491878265,-105.9949750140862 L 113.71502491911326,-105.99497501501018 L 113.71502492286835,-105.99497502407576 L 113.71502492328793,-105.99497502496288 L 113.71502492791397,-105.99497503361768 L 113.71502492841849,-105.99497503445942 L 113.7150249338707,-105.99497504261927 L 113.71502493445529,-105.9949750434075 L 113.71502494068169,-105.99497505099433 L 113.71502494134073,-105.99497505172145 L 113.71502494827854,-105.99497505865926 L 113.71502494900567,-105.9949750593183 L 113.71502495659249,-105.99497506554471 L 113.71502495738072,-105.9949750661293 L 113.71502496554058,-105.99497507158151 L 113.71502496638232,-105.99497507208602 L 113.71502497503711,-105.99497507671207 L 113.71502497592424,-105.99497507713164 L 113.71502498498981,-105.99497508088673 L 113.7150249859138,-105.99497508121735 L 113.71502499530587,-105.99497508406641 L 113.71502499625781,-105.99497508430485 L 113.71502500588204,-105.99497508621921 L 113.71502500685278,-105.99497508636321 L 113.71502501661992,-105.99497508732517 L 113.71502501760008,-105.99497508737332 L 113.71502502250624,-105.99497508749374 L 158.69997497749375,-105.99497508749374 z" fill="#66cc99" fill-rule="evenodd" opacity="0.6" stroke="#555555" stroke-width="0.02"/>
	</g>
	 
</svg>
