M48
METRIC
T1C0.800
T2C1.000
%
G90
G05
T1
X114.935Y-100.33
X115.57Y-71.755
X118.11Y-99.695
X120.65Y-100.33
X134.62Y-92.075
X137.977Y-102.417
X139.065Y-88.9
X140.335Y-83.185
X142.24Y-77.47
X145.415Y-103.505
X149.225Y-83.185
X150.495Y-68.58
X150.495Y-76.835
T2
X115.57Y-103.505
X118.11Y-103.505
X119.375Y-68.58
X120.65Y-103.505
X121.915Y-68.58
X123.19Y-103.505
X150.495Y-90.17
X150.495Y-92.71
X150.495Y-95.25
X150.495Y-97.79
X150.495Y-100.33
X153.035Y-90.17
X153.035Y-92.71
X153.035Y-95.25
X153.035Y-97.79
X153.035Y-100.33
T0
M30
