%TF.GenerationSoftware,KiCad,Pcbnew,(6.0.11)*%
%TF.CreationDate,2023-03-20T00:38:49+01:00*%
%TF.ProjectId,prusa-lcd-reader-rounded,70727573-612d-46c6-9364-2d7265616465,rev?*%
%TF.SameCoordinates,Original*%
%TF.FileFunction,Soldermask,Top*%
%TF.FilePolarity,Negative*%
%FSLAX46Y46*%
G04 Gerber Fmt 4.6, Leading zero omitted, Abs format (unit mm)*
G04 Created by KiCad (PCBNEW (6.0.11)) date 2023-03-20 00:38:49*
%MOMM*%
%LPD*%
G01*
G04 APERTURE LIST*
G04 Aperture macros list*
%AMRoundRect*
0 Rectangle with rounded corners*
0 $1 Rounding radius*
0 $2 $3 $4 $5 $6 $7 $8 $9 X,Y pos of 4 corners*
0 Add a 4 corners polygon primitive as box body*
4,1,4,$2,$3,$4,$5,$6,$7,$8,$9,$2,$3,0*
0 Add four circle primitives for the rounded corners*
1,1,$1+$1,$2,$3*
1,1,$1+$1,$4,$5*
1,1,$1+$1,$6,$7*
1,1,$1+$1,$8,$9*
0 Add four rect primitives between the rounded corners*
20,1,$1+$1,$2,$3,$4,$5,0*
20,1,$1+$1,$4,$5,$6,$7,0*
20,1,$1+$1,$6,$7,$8,$9,0*
20,1,$1+$1,$8,$9,$2,$3,0*%
G04 Aperture macros list end*
%ADD10R,4.200000X4.200000*%
%ADD11R,0.900000X1.500000*%
%ADD12R,1.500000X0.900000*%
%ADD13R,1.700000X1.700000*%
%ADD14O,1.700000X1.700000*%
%ADD15R,0.800000X0.900000*%
%ADD16R,2.000000X1.500000*%
%ADD17R,2.000000X3.800000*%
%ADD18R,1.550000X1.300000*%
%ADD19RoundRect,0.250000X-0.450000X0.262500X-0.450000X-0.262500X0.450000X-0.262500X0.450000X0.262500X0*%
%ADD20RoundRect,0.250000X-0.262500X-0.450000X0.262500X-0.450000X0.262500X0.450000X-0.262500X0.450000X0*%
%ADD21RoundRect,0.250000X-0.600000X-0.600000X0.600000X-0.600000X0.600000X0.600000X-0.600000X0.600000X0*%
%ADD22C,1.700000*%
%ADD23RoundRect,0.250000X-0.250000X-0.475000X0.250000X-0.475000X0.250000X0.475000X-0.250000X0.475000X0*%
G04 APERTURE END LIST*
D10*
%TO.C,U1*%
X122280000Y-83865000D03*
D11*
X114940000Y-74435000D03*
X116210000Y-74435000D03*
X117480000Y-74435000D03*
X118750000Y-74435000D03*
X120020000Y-74435000D03*
X121290000Y-74435000D03*
X122560000Y-74435000D03*
X123830000Y-74435000D03*
X125100000Y-74435000D03*
X126370000Y-74435000D03*
X127640000Y-74435000D03*
X128910000Y-74435000D03*
X130180000Y-74435000D03*
X131450000Y-74435000D03*
D12*
X132700000Y-77465000D03*
X132700000Y-78735000D03*
X132700000Y-80005000D03*
X132700000Y-81275000D03*
X132700000Y-82545000D03*
X132700000Y-83815000D03*
X132700000Y-85085000D03*
X132700000Y-86355000D03*
X132700000Y-87625000D03*
X132700000Y-88895000D03*
D11*
X131450000Y-91935000D03*
X130180000Y-91935000D03*
X128910000Y-91935000D03*
X127640000Y-91935000D03*
X126370000Y-91935000D03*
X125100000Y-91935000D03*
X123830000Y-91935000D03*
X122560000Y-91935000D03*
X121290000Y-91935000D03*
X120020000Y-91935000D03*
X118750000Y-91935000D03*
X117480000Y-91935000D03*
X116210000Y-91935000D03*
X114940000Y-91935000D03*
%TD*%
D13*
%TO.C,J3*%
X115570000Y-103505000D03*
D14*
X118110000Y-103505000D03*
X120650000Y-103505000D03*
X123190000Y-103505000D03*
%TD*%
%TO.C,J2*%
X121915000Y-68580000D03*
D13*
X119375000Y-68580000D03*
%TD*%
D15*
%TO.C,Q2*%
X140015000Y-85360000D03*
X138115000Y-85360000D03*
X139065000Y-87360000D03*
%TD*%
D16*
%TO.C,U2*%
X144755000Y-100090000D03*
D17*
X138455000Y-97790000D03*
D16*
X144755000Y-97790000D03*
X144755000Y-95490000D03*
%TD*%
D18*
%TO.C,SW1*%
X123520000Y-99405000D03*
X133020000Y-99405000D03*
X123520000Y-94905000D03*
X133020000Y-94905000D03*
%TD*%
D19*
%TO.C,R7*%
X153620000Y-73382500D03*
X153620000Y-75207500D03*
%TD*%
%TO.C,R6*%
X152400000Y-79097500D03*
X152400000Y-80922500D03*
%TD*%
%TO.C,R5*%
X145415000Y-74017500D03*
X145415000Y-75842500D03*
%TD*%
%TO.C,R4*%
X143510000Y-79732500D03*
X143510000Y-81557500D03*
%TD*%
%TO.C,R3*%
X142240000Y-87272500D03*
X142240000Y-85447500D03*
%TD*%
%TO.C,R2*%
X141605000Y-92987500D03*
X141605000Y-91162500D03*
%TD*%
D20*
%TO.C,R1*%
X118467500Y-97790000D03*
X120292500Y-97790000D03*
%TD*%
D15*
%TO.C,Q6*%
X151395000Y-73295000D03*
X149495000Y-73295000D03*
X150445000Y-75295000D03*
%TD*%
%TO.C,Q5*%
X150175000Y-79010000D03*
X148275000Y-79010000D03*
X149225000Y-81010000D03*
%TD*%
%TO.C,Q4*%
X143190000Y-73930000D03*
X141290000Y-73930000D03*
X142240000Y-75930000D03*
%TD*%
%TO.C,Q3*%
X140335000Y-81645000D03*
X139385000Y-79645000D03*
X141285000Y-79645000D03*
%TD*%
%TO.C,Q1*%
X138430000Y-93075000D03*
X137480000Y-91075000D03*
X139380000Y-91075000D03*
%TD*%
D21*
%TO.C,J1*%
X150495000Y-100330000D03*
D22*
X153035000Y-100330000D03*
X150495000Y-97790000D03*
X153035000Y-97790000D03*
X150495000Y-95250000D03*
X153035000Y-95250000D03*
X150495000Y-92710000D03*
X153035000Y-92710000D03*
X150495000Y-90170000D03*
X153035000Y-90170000D03*
%TD*%
D23*
%TO.C,C4*%
X140020000Y-103505000D03*
X141920000Y-103505000D03*
%TD*%
%TO.C,C3*%
X118430000Y-95250000D03*
X120330000Y-95250000D03*
%TD*%
%TO.C,C2*%
X114620000Y-97790000D03*
X116520000Y-97790000D03*
%TD*%
%TO.C,C1*%
X116520000Y-95260000D03*
X114620000Y-95260000D03*
%TD*%
M02*
