%TF.GenerationSoftware,KiCad,Pcbnew,(6.0.11)*%
%TF.CreationDate,2023-03-20T00:38:49+01:00*%
%TF.ProjectId,prusa-lcd-reader-rounded,70727573-612d-46c6-9364-2d7265616465,rev?*%
%TF.SameCoordinates,Original*%
%TF.FileFunction,Legend,Top*%
%TF.FilePolarity,Positive*%
%FSLAX46Y46*%
G04 Gerber Fmt 4.6, Leading zero omitted, Abs format (unit mm)*
G04 Created by KiCad (PCBNEW (6.0.11)) date 2023-03-20 00:38:49*
%MOMM*%
%LPD*%
G01*
G04 APERTURE LIST*
%ADD10C,0.150000*%
%ADD11C,0.120000*%
G04 APERTURE END LIST*
D10*
%TO.C,U1*%
X130858095Y-93247380D02*
X130858095Y-94056904D01*
X130905714Y-94152142D01*
X130953333Y-94199761D01*
X131048571Y-94247380D01*
X131239047Y-94247380D01*
X131334285Y-94199761D01*
X131381904Y-94152142D01*
X131429523Y-94056904D01*
X131429523Y-93247380D01*
X132429523Y-94247380D02*
X131858095Y-94247380D01*
X132143809Y-94247380D02*
X132143809Y-93247380D01*
X132048571Y-93390238D01*
X131953333Y-93485476D01*
X131858095Y-93533095D01*
%TO.C,Q2*%
X142112619Y-86455238D02*
X142065000Y-86550476D01*
X141969761Y-86645714D01*
X141826904Y-86788571D01*
X141779285Y-86883809D01*
X141779285Y-86979047D01*
X142017380Y-86931428D02*
X141969761Y-87026666D01*
X141874523Y-87121904D01*
X141684047Y-87169523D01*
X141350714Y-87169523D01*
X141160238Y-87121904D01*
X141065000Y-87026666D01*
X141017380Y-86931428D01*
X141017380Y-86740952D01*
X141065000Y-86645714D01*
X141160238Y-86550476D01*
X141350714Y-86502857D01*
X141684047Y-86502857D01*
X141874523Y-86550476D01*
X141969761Y-86645714D01*
X142017380Y-86740952D01*
X142017380Y-86931428D01*
X141112619Y-86121904D02*
X141065000Y-86074285D01*
X141017380Y-85979047D01*
X141017380Y-85740952D01*
X141065000Y-85645714D01*
X141112619Y-85598095D01*
X141207857Y-85550476D01*
X141303095Y-85550476D01*
X141445952Y-85598095D01*
X142017380Y-86169523D01*
X142017380Y-85550476D01*
%TO.C,U2*%
X140843095Y-101742380D02*
X140843095Y-102551904D01*
X140890714Y-102647142D01*
X140938333Y-102694761D01*
X141033571Y-102742380D01*
X141224047Y-102742380D01*
X141319285Y-102694761D01*
X141366904Y-102647142D01*
X141414523Y-102551904D01*
X141414523Y-101742380D01*
X141843095Y-101837619D02*
X141890714Y-101790000D01*
X141985952Y-101742380D01*
X142224047Y-101742380D01*
X142319285Y-101790000D01*
X142366904Y-101837619D01*
X142414523Y-101932857D01*
X142414523Y-102028095D01*
X142366904Y-102170952D01*
X141795476Y-102742380D01*
X142414523Y-102742380D01*
%TO.C,SW1*%
X126936666Y-101609761D02*
X127079523Y-101657380D01*
X127317619Y-101657380D01*
X127412857Y-101609761D01*
X127460476Y-101562142D01*
X127508095Y-101466904D01*
X127508095Y-101371666D01*
X127460476Y-101276428D01*
X127412857Y-101228809D01*
X127317619Y-101181190D01*
X127127142Y-101133571D01*
X127031904Y-101085952D01*
X126984285Y-101038333D01*
X126936666Y-100943095D01*
X126936666Y-100847857D01*
X126984285Y-100752619D01*
X127031904Y-100705000D01*
X127127142Y-100657380D01*
X127365238Y-100657380D01*
X127508095Y-100705000D01*
X127841428Y-100657380D02*
X128079523Y-101657380D01*
X128270000Y-100943095D01*
X128460476Y-101657380D01*
X128698571Y-100657380D01*
X129603333Y-101657380D02*
X129031904Y-101657380D01*
X129317619Y-101657380D02*
X129317619Y-100657380D01*
X129222380Y-100800238D01*
X129127142Y-100895476D01*
X129031904Y-100943095D01*
%TO.C,R7*%
X155722380Y-74461666D02*
X155246190Y-74795000D01*
X155722380Y-75033095D02*
X154722380Y-75033095D01*
X154722380Y-74652142D01*
X154770000Y-74556904D01*
X154817619Y-74509285D01*
X154912857Y-74461666D01*
X155055714Y-74461666D01*
X155150952Y-74509285D01*
X155198571Y-74556904D01*
X155246190Y-74652142D01*
X155246190Y-75033095D01*
X154722380Y-74128333D02*
X154722380Y-73461666D01*
X155722380Y-73890238D01*
%TO.C,R6*%
X154502380Y-80176666D02*
X154026190Y-80510000D01*
X154502380Y-80748095D02*
X153502380Y-80748095D01*
X153502380Y-80367142D01*
X153550000Y-80271904D01*
X153597619Y-80224285D01*
X153692857Y-80176666D01*
X153835714Y-80176666D01*
X153930952Y-80224285D01*
X153978571Y-80271904D01*
X154026190Y-80367142D01*
X154026190Y-80748095D01*
X153502380Y-79319523D02*
X153502380Y-79510000D01*
X153550000Y-79605238D01*
X153597619Y-79652857D01*
X153740476Y-79748095D01*
X153930952Y-79795714D01*
X154311904Y-79795714D01*
X154407142Y-79748095D01*
X154454761Y-79700476D01*
X154502380Y-79605238D01*
X154502380Y-79414761D01*
X154454761Y-79319523D01*
X154407142Y-79271904D01*
X154311904Y-79224285D01*
X154073809Y-79224285D01*
X153978571Y-79271904D01*
X153930952Y-79319523D01*
X153883333Y-79414761D01*
X153883333Y-79605238D01*
X153930952Y-79700476D01*
X153978571Y-79748095D01*
X154073809Y-79795714D01*
%TO.C,R5*%
X147517380Y-75096666D02*
X147041190Y-75430000D01*
X147517380Y-75668095D02*
X146517380Y-75668095D01*
X146517380Y-75287142D01*
X146565000Y-75191904D01*
X146612619Y-75144285D01*
X146707857Y-75096666D01*
X146850714Y-75096666D01*
X146945952Y-75144285D01*
X146993571Y-75191904D01*
X147041190Y-75287142D01*
X147041190Y-75668095D01*
X146517380Y-74191904D02*
X146517380Y-74668095D01*
X146993571Y-74715714D01*
X146945952Y-74668095D01*
X146898333Y-74572857D01*
X146898333Y-74334761D01*
X146945952Y-74239523D01*
X146993571Y-74191904D01*
X147088809Y-74144285D01*
X147326904Y-74144285D01*
X147422142Y-74191904D01*
X147469761Y-74239523D01*
X147517380Y-74334761D01*
X147517380Y-74572857D01*
X147469761Y-74668095D01*
X147422142Y-74715714D01*
%TO.C,R4*%
X145612380Y-80811666D02*
X145136190Y-81145000D01*
X145612380Y-81383095D02*
X144612380Y-81383095D01*
X144612380Y-81002142D01*
X144660000Y-80906904D01*
X144707619Y-80859285D01*
X144802857Y-80811666D01*
X144945714Y-80811666D01*
X145040952Y-80859285D01*
X145088571Y-80906904D01*
X145136190Y-81002142D01*
X145136190Y-81383095D01*
X144945714Y-79954523D02*
X145612380Y-79954523D01*
X144564761Y-80192619D02*
X145279047Y-80430714D01*
X145279047Y-79811666D01*
%TO.C,R3*%
X144342380Y-86526666D02*
X143866190Y-86860000D01*
X144342380Y-87098095D02*
X143342380Y-87098095D01*
X143342380Y-86717142D01*
X143390000Y-86621904D01*
X143437619Y-86574285D01*
X143532857Y-86526666D01*
X143675714Y-86526666D01*
X143770952Y-86574285D01*
X143818571Y-86621904D01*
X143866190Y-86717142D01*
X143866190Y-87098095D01*
X143342380Y-86193333D02*
X143342380Y-85574285D01*
X143723333Y-85907619D01*
X143723333Y-85764761D01*
X143770952Y-85669523D01*
X143818571Y-85621904D01*
X143913809Y-85574285D01*
X144151904Y-85574285D01*
X144247142Y-85621904D01*
X144294761Y-85669523D01*
X144342380Y-85764761D01*
X144342380Y-86050476D01*
X144294761Y-86145714D01*
X144247142Y-86193333D01*
%TO.C,R2*%
X143707380Y-92241666D02*
X143231190Y-92575000D01*
X143707380Y-92813095D02*
X142707380Y-92813095D01*
X142707380Y-92432142D01*
X142755000Y-92336904D01*
X142802619Y-92289285D01*
X142897857Y-92241666D01*
X143040714Y-92241666D01*
X143135952Y-92289285D01*
X143183571Y-92336904D01*
X143231190Y-92432142D01*
X143231190Y-92813095D01*
X142802619Y-91860714D02*
X142755000Y-91813095D01*
X142707380Y-91717857D01*
X142707380Y-91479761D01*
X142755000Y-91384523D01*
X142802619Y-91336904D01*
X142897857Y-91289285D01*
X142993095Y-91289285D01*
X143135952Y-91336904D01*
X143707380Y-91908333D01*
X143707380Y-91289285D01*
%TO.C,R1*%
X119213333Y-96592380D02*
X118880000Y-96116190D01*
X118641904Y-96592380D02*
X118641904Y-95592380D01*
X119022857Y-95592380D01*
X119118095Y-95640000D01*
X119165714Y-95687619D01*
X119213333Y-95782857D01*
X119213333Y-95925714D01*
X119165714Y-96020952D01*
X119118095Y-96068571D01*
X119022857Y-96116190D01*
X118641904Y-96116190D01*
X120165714Y-96592380D02*
X119594285Y-96592380D01*
X119880000Y-96592380D02*
X119880000Y-95592380D01*
X119784761Y-95735238D01*
X119689523Y-95830476D01*
X119594285Y-95878095D01*
%TO.C,Q6*%
X153492619Y-74390238D02*
X153445000Y-74485476D01*
X153349761Y-74580714D01*
X153206904Y-74723571D01*
X153159285Y-74818809D01*
X153159285Y-74914047D01*
X153397380Y-74866428D02*
X153349761Y-74961666D01*
X153254523Y-75056904D01*
X153064047Y-75104523D01*
X152730714Y-75104523D01*
X152540238Y-75056904D01*
X152445000Y-74961666D01*
X152397380Y-74866428D01*
X152397380Y-74675952D01*
X152445000Y-74580714D01*
X152540238Y-74485476D01*
X152730714Y-74437857D01*
X153064047Y-74437857D01*
X153254523Y-74485476D01*
X153349761Y-74580714D01*
X153397380Y-74675952D01*
X153397380Y-74866428D01*
X152397380Y-73580714D02*
X152397380Y-73771190D01*
X152445000Y-73866428D01*
X152492619Y-73914047D01*
X152635476Y-74009285D01*
X152825952Y-74056904D01*
X153206904Y-74056904D01*
X153302142Y-74009285D01*
X153349761Y-73961666D01*
X153397380Y-73866428D01*
X153397380Y-73675952D01*
X153349761Y-73580714D01*
X153302142Y-73533095D01*
X153206904Y-73485476D01*
X152968809Y-73485476D01*
X152873571Y-73533095D01*
X152825952Y-73580714D01*
X152778333Y-73675952D01*
X152778333Y-73866428D01*
X152825952Y-73961666D01*
X152873571Y-74009285D01*
X152968809Y-74056904D01*
%TO.C,Q5*%
X152272619Y-80105238D02*
X152225000Y-80200476D01*
X152129761Y-80295714D01*
X151986904Y-80438571D01*
X151939285Y-80533809D01*
X151939285Y-80629047D01*
X152177380Y-80581428D02*
X152129761Y-80676666D01*
X152034523Y-80771904D01*
X151844047Y-80819523D01*
X151510714Y-80819523D01*
X151320238Y-80771904D01*
X151225000Y-80676666D01*
X151177380Y-80581428D01*
X151177380Y-80390952D01*
X151225000Y-80295714D01*
X151320238Y-80200476D01*
X151510714Y-80152857D01*
X151844047Y-80152857D01*
X152034523Y-80200476D01*
X152129761Y-80295714D01*
X152177380Y-80390952D01*
X152177380Y-80581428D01*
X151177380Y-79248095D02*
X151177380Y-79724285D01*
X151653571Y-79771904D01*
X151605952Y-79724285D01*
X151558333Y-79629047D01*
X151558333Y-79390952D01*
X151605952Y-79295714D01*
X151653571Y-79248095D01*
X151748809Y-79200476D01*
X151986904Y-79200476D01*
X152082142Y-79248095D01*
X152129761Y-79295714D01*
X152177380Y-79390952D01*
X152177380Y-79629047D01*
X152129761Y-79724285D01*
X152082142Y-79771904D01*
%TO.C,Q4*%
X145287619Y-75025238D02*
X145240000Y-75120476D01*
X145144761Y-75215714D01*
X145001904Y-75358571D01*
X144954285Y-75453809D01*
X144954285Y-75549047D01*
X145192380Y-75501428D02*
X145144761Y-75596666D01*
X145049523Y-75691904D01*
X144859047Y-75739523D01*
X144525714Y-75739523D01*
X144335238Y-75691904D01*
X144240000Y-75596666D01*
X144192380Y-75501428D01*
X144192380Y-75310952D01*
X144240000Y-75215714D01*
X144335238Y-75120476D01*
X144525714Y-75072857D01*
X144859047Y-75072857D01*
X145049523Y-75120476D01*
X145144761Y-75215714D01*
X145192380Y-75310952D01*
X145192380Y-75501428D01*
X144525714Y-74215714D02*
X145192380Y-74215714D01*
X144144761Y-74453809D02*
X144859047Y-74691904D01*
X144859047Y-74072857D01*
%TO.C,Q3*%
X143382619Y-80740238D02*
X143335000Y-80835476D01*
X143239761Y-80930714D01*
X143096904Y-81073571D01*
X143049285Y-81168809D01*
X143049285Y-81264047D01*
X143287380Y-81216428D02*
X143239761Y-81311666D01*
X143144523Y-81406904D01*
X142954047Y-81454523D01*
X142620714Y-81454523D01*
X142430238Y-81406904D01*
X142335000Y-81311666D01*
X142287380Y-81216428D01*
X142287380Y-81025952D01*
X142335000Y-80930714D01*
X142430238Y-80835476D01*
X142620714Y-80787857D01*
X142954047Y-80787857D01*
X143144523Y-80835476D01*
X143239761Y-80930714D01*
X143287380Y-81025952D01*
X143287380Y-81216428D01*
X142287380Y-80454523D02*
X142287380Y-79835476D01*
X142668333Y-80168809D01*
X142668333Y-80025952D01*
X142715952Y-79930714D01*
X142763571Y-79883095D01*
X142858809Y-79835476D01*
X143096904Y-79835476D01*
X143192142Y-79883095D01*
X143239761Y-79930714D01*
X143287380Y-80025952D01*
X143287380Y-80311666D01*
X143239761Y-80406904D01*
X143192142Y-80454523D01*
%TO.C,Q1*%
X141477619Y-92170238D02*
X141430000Y-92265476D01*
X141334761Y-92360714D01*
X141191904Y-92503571D01*
X141144285Y-92598809D01*
X141144285Y-92694047D01*
X141382380Y-92646428D02*
X141334761Y-92741666D01*
X141239523Y-92836904D01*
X141049047Y-92884523D01*
X140715714Y-92884523D01*
X140525238Y-92836904D01*
X140430000Y-92741666D01*
X140382380Y-92646428D01*
X140382380Y-92455952D01*
X140430000Y-92360714D01*
X140525238Y-92265476D01*
X140715714Y-92217857D01*
X141049047Y-92217857D01*
X141239523Y-92265476D01*
X141334761Y-92360714D01*
X141382380Y-92455952D01*
X141382380Y-92646428D01*
X141382380Y-91265476D02*
X141382380Y-91836904D01*
X141382380Y-91551190D02*
X140382380Y-91551190D01*
X140525238Y-91646428D01*
X140620476Y-91741666D01*
X140668095Y-91836904D01*
%TO.C,C4*%
X140803333Y-102182142D02*
X140755714Y-102229761D01*
X140612857Y-102277380D01*
X140517619Y-102277380D01*
X140374761Y-102229761D01*
X140279523Y-102134523D01*
X140231904Y-102039285D01*
X140184285Y-101848809D01*
X140184285Y-101705952D01*
X140231904Y-101515476D01*
X140279523Y-101420238D01*
X140374761Y-101325000D01*
X140517619Y-101277380D01*
X140612857Y-101277380D01*
X140755714Y-101325000D01*
X140803333Y-101372619D01*
X141660476Y-101610714D02*
X141660476Y-102277380D01*
X141422380Y-101229761D02*
X141184285Y-101944047D01*
X141803333Y-101944047D01*
%TO.C,C3*%
X119213333Y-93927142D02*
X119165714Y-93974761D01*
X119022857Y-94022380D01*
X118927619Y-94022380D01*
X118784761Y-93974761D01*
X118689523Y-93879523D01*
X118641904Y-93784285D01*
X118594285Y-93593809D01*
X118594285Y-93450952D01*
X118641904Y-93260476D01*
X118689523Y-93165238D01*
X118784761Y-93070000D01*
X118927619Y-93022380D01*
X119022857Y-93022380D01*
X119165714Y-93070000D01*
X119213333Y-93117619D01*
X119546666Y-93022380D02*
X120165714Y-93022380D01*
X119832380Y-93403333D01*
X119975238Y-93403333D01*
X120070476Y-93450952D01*
X120118095Y-93498571D01*
X120165714Y-93593809D01*
X120165714Y-93831904D01*
X120118095Y-93927142D01*
X120070476Y-93974761D01*
X119975238Y-94022380D01*
X119689523Y-94022380D01*
X119594285Y-93974761D01*
X119546666Y-93927142D01*
%TO.C,C2*%
X115403333Y-96467142D02*
X115355714Y-96514761D01*
X115212857Y-96562380D01*
X115117619Y-96562380D01*
X114974761Y-96514761D01*
X114879523Y-96419523D01*
X114831904Y-96324285D01*
X114784285Y-96133809D01*
X114784285Y-95990952D01*
X114831904Y-95800476D01*
X114879523Y-95705238D01*
X114974761Y-95610000D01*
X115117619Y-95562380D01*
X115212857Y-95562380D01*
X115355714Y-95610000D01*
X115403333Y-95657619D01*
X115784285Y-95657619D02*
X115831904Y-95610000D01*
X115927142Y-95562380D01*
X116165238Y-95562380D01*
X116260476Y-95610000D01*
X116308095Y-95657619D01*
X116355714Y-95752857D01*
X116355714Y-95848095D01*
X116308095Y-95990952D01*
X115736666Y-96562380D01*
X116355714Y-96562380D01*
%TO.C,C1*%
X115403333Y-93937142D02*
X115355714Y-93984761D01*
X115212857Y-94032380D01*
X115117619Y-94032380D01*
X114974761Y-93984761D01*
X114879523Y-93889523D01*
X114831904Y-93794285D01*
X114784285Y-93603809D01*
X114784285Y-93460952D01*
X114831904Y-93270476D01*
X114879523Y-93175238D01*
X114974761Y-93080000D01*
X115117619Y-93032380D01*
X115212857Y-93032380D01*
X115355714Y-93080000D01*
X115403333Y-93127619D01*
X116355714Y-94032380D02*
X115784285Y-94032380D01*
X116070000Y-94032380D02*
X116070000Y-93032380D01*
X115974761Y-93175238D01*
X115879523Y-93270476D01*
X115784285Y-93318095D01*
D11*
%TO.C,U1*%
X133070000Y-92305000D02*
X133070000Y-91305000D01*
X132290000Y-92305000D02*
X133070000Y-92305000D01*
X113745000Y-92305000D02*
X113745000Y-92685000D01*
X133070000Y-74065000D02*
X133070000Y-75065000D01*
X132290000Y-74065000D02*
X133070000Y-74065000D01*
X107330000Y-92305000D02*
X113745000Y-92305000D01*
X107330000Y-92305000D02*
X107330000Y-74065000D01*
X107330000Y-74065000D02*
X113745000Y-74065000D01*
%TO.C,Q2*%
X137350500Y-84645500D02*
X137350500Y-88074500D01*
X140779500Y-84645500D02*
X137350500Y-84645500D01*
X137350500Y-88074500D02*
X140779500Y-88074500D01*
X140779500Y-88074500D02*
X140779500Y-84645500D01*
%TO.C,U2*%
X145705000Y-101200000D02*
X139695000Y-101200000D01*
X143455000Y-94380000D02*
X139695000Y-94380000D01*
X139695000Y-94380000D02*
X139695000Y-95640000D01*
X139695000Y-101200000D02*
X139695000Y-99940000D01*
%TO.C,SW1*%
X131500000Y-98455000D02*
X131500000Y-95855000D01*
X125040000Y-98455000D02*
X125040000Y-95855000D01*
X131500000Y-100385000D02*
X125040000Y-100385000D01*
X131500000Y-100355000D02*
X131500000Y-100385000D01*
X131500000Y-93925000D02*
X131500000Y-93955000D01*
X125040000Y-93925000D02*
X125040000Y-93955000D01*
X125040000Y-100385000D02*
X125040000Y-100355000D01*
X131500000Y-93925000D02*
X125040000Y-93925000D01*
%TO.C,R7*%
X154355000Y-74067936D02*
X154355000Y-74522064D01*
X152885000Y-74067936D02*
X152885000Y-74522064D01*
%TO.C,R6*%
X153135000Y-79782936D02*
X153135000Y-80237064D01*
X151665000Y-79782936D02*
X151665000Y-80237064D01*
%TO.C,R5*%
X146150000Y-74702936D02*
X146150000Y-75157064D01*
X144680000Y-74702936D02*
X144680000Y-75157064D01*
%TO.C,R4*%
X144245000Y-80417936D02*
X144245000Y-80872064D01*
X142775000Y-80417936D02*
X142775000Y-80872064D01*
%TO.C,R3*%
X141505000Y-86132936D02*
X141505000Y-86587064D01*
X142975000Y-86132936D02*
X142975000Y-86587064D01*
%TO.C,R2*%
X140870000Y-91847936D02*
X140870000Y-92302064D01*
X142340000Y-91847936D02*
X142340000Y-92302064D01*
%TO.C,R1*%
X119152936Y-97055000D02*
X119607064Y-97055000D01*
X119152936Y-98525000D02*
X119607064Y-98525000D01*
%TO.C,Q6*%
X148730500Y-72580500D02*
X148730500Y-76009500D01*
X152159500Y-72580500D02*
X148730500Y-72580500D01*
X148730500Y-76009500D02*
X152159500Y-76009500D01*
X152159500Y-76009500D02*
X152159500Y-72580500D01*
%TO.C,Q5*%
X147510500Y-78295500D02*
X147510500Y-81724500D01*
X150939500Y-78295500D02*
X147510500Y-78295500D01*
X147510500Y-81724500D02*
X150939500Y-81724500D01*
X150939500Y-81724500D02*
X150939500Y-78295500D01*
%TO.C,Q4*%
X140525500Y-73215500D02*
X140525500Y-76644500D01*
X143954500Y-73215500D02*
X140525500Y-73215500D01*
X140525500Y-76644500D02*
X143954500Y-76644500D01*
X143954500Y-76644500D02*
X143954500Y-73215500D01*
%TO.C,Q3*%
X142049500Y-82359500D02*
X142049500Y-78930500D01*
X138620500Y-82359500D02*
X142049500Y-82359500D01*
X142049500Y-78930500D02*
X138620500Y-78930500D01*
X138620500Y-78930500D02*
X138620500Y-82359500D01*
%TO.C,Q1*%
X140144500Y-93789500D02*
X140144500Y-90360500D01*
X136715500Y-93789500D02*
X140144500Y-93789500D01*
X140144500Y-90360500D02*
X136715500Y-90360500D01*
X136715500Y-90360500D02*
X136715500Y-93789500D01*
%TO.C,C4*%
X140708748Y-104240000D02*
X141231252Y-104240000D01*
X140708748Y-102770000D02*
X141231252Y-102770000D01*
%TO.C,C3*%
X119118748Y-95985000D02*
X119641252Y-95985000D01*
X119118748Y-94515000D02*
X119641252Y-94515000D01*
%TO.C,C2*%
X115308748Y-98525000D02*
X115831252Y-98525000D01*
X115308748Y-97055000D02*
X115831252Y-97055000D01*
%TO.C,C1*%
X115308748Y-94525000D02*
X115831252Y-94525000D01*
X115308748Y-95995000D02*
X115831252Y-95995000D01*
%TD*%
M02*
